# xmcd
#
# Track frame offsets:
#	150
#	15502
#	28197
#	39722
#	58805
#	70445
#	88740
#	98607
#	108815
#	123140
#	141147
#	155762
#	168797
#	180010
#	187492
#	198607
#	203917
#	218957
#	230447
#	244572
#	260712
#
# Disc length: 3767 seconds
#
# Revision: 2
# Processed by: cddbd v1.5.2PL0 Copyright (c) Steve Scherf et al.
# Submitted via: audiograbber 1.83.01
#
DISCID=2c0eb515
DTITLE=Coe, David Allan - Longhaired redneck - Rides again
DYEAR=1977
DGENRE=Country
TTITLE0=Longhaired redneck
TTITLE1=When she's got me (where she wants me)
TTITLE2=Revenge
TTITLE3=Texas lullaby
TTITLE4=Living on the run
TTITLE5=Family reunion
TTITLE6=Rock and roll holiday
TTITLE7=Free born rambling man
TTITLE8=Spotlight
TTITLE9=Dakota the dancing bear, part 2
TTITLE10=Willie, Waylon and me
TTITLE11=The house we've been calling home
TTITLE12=Young Dallas cowboy
TTITLE13=A sense of humor
TTITLE14=The punkin center barn dance
TTITLE15=Willie, waylon and me (Reprise)
TTITLE16=Lately I've been thinking too much lately
TTITLE17=Laid back and wasted
TTITLE18=Under Rachel's wings
TTITLE19=Greener than the grass we laid on
TTITLE20=If that ain't country
EXTD=
EXTT0=
EXTT1=
EXTT2=
EXTT3=
EXTT4=
EXTT5=
EXTT6=
EXTT7=
EXTT8=
EXTT9=
EXTT10=
EXTT11=
EXTT12=
EXTT13=
EXTT14=
EXTT15=
EXTT16=
EXTT17=
EXTT18=
EXTT19=
EXTT20=
PLAYORDER=
